<svg width="684" height="684" viewBox="0 0 684 684" fill="none" xmlns="http://www.w3.org/2000/svg">
<g clip-path="url(#clip0_12_119)">
<path d="M51.2276 349.284L203.103 86.2288C207.935 77.8587 218.638 74.9908 227.008 79.8233L625.38 309.823C633.75 314.656 636.618 325.359 631.785 333.729L479.91 596.784C475.078 605.154 464.375 608.022 456.005 603.189L57.633 373.189C49.2629 368.357 46.3951 357.654 51.2276 349.284Z" fill="#6B2BE7" fill-opacity="0.74" stroke="black" stroke-width="5"/>
<path d="M108.189 334.021L218.366 143.19C223.198 134.82 233.901 131.952 242.271 136.785L286.801 162.494C295.171 167.327 298.039 178.03 293.207 186.4L183.03 377.231C178.198 385.601 167.495 388.468 159.125 383.636L114.595 357.927C106.225 353.094 103.357 342.391 108.189 334.021Z" fill="white" fill-opacity="0.8" stroke="black" stroke-width="5"/>
<path d="M391.248 305.386C393.112 302.158 397.24 301.052 400.468 302.916L421.569 315.098C424.798 316.962 425.904 321.091 424.04 324.319L402.402 361.797C400.538 365.025 396.41 366.131 393.182 364.267L372.081 352.085L371.784 351.903C368.786 349.963 367.804 345.991 369.61 342.864L391.248 305.386Z" fill="white" fill-opacity="0.47" stroke="black" stroke-width="3.5"/>
<path d="M425.76 245.609C427.624 242.381 431.753 241.274 434.981 243.138L456.082 255.321C459.31 257.185 460.416 261.313 458.553 264.542L436.915 302.019C435.051 305.248 430.923 306.354 427.694 304.49L406.593 292.307L406.297 292.126C403.299 290.186 402.317 286.214 404.123 283.087L425.76 245.609Z" fill="white" fill-opacity="0.47" stroke="black" stroke-width="3.5"/>
<path d="M322.222 424.943C324.086 421.715 328.214 420.609 331.442 422.472L352.543 434.655C355.772 436.519 356.878 440.647 355.014 443.876L333.376 481.353C331.512 484.582 327.384 485.688 324.156 483.824L303.055 471.641L302.758 471.46C299.76 469.52 298.778 465.548 300.584 462.421L322.222 424.943Z" fill="white" fill-opacity="0.47" stroke="black" stroke-width="3.5"/>
<path d="M356.735 365.165C358.599 361.937 362.727 360.83 365.956 362.694L387.057 374.877C390.285 376.741 391.391 380.869 389.527 384.097L367.89 421.575C366.026 424.804 361.897 425.91 358.669 424.046L337.568 411.863L337.271 411.682C334.273 409.742 333.292 405.77 335.097 402.642L356.735 365.165Z" fill="white" fill-opacity="0.47" stroke="black" stroke-width="3.5"/>
<path d="M458.307 344.103C460.171 340.875 464.3 339.769 467.528 341.633L488.629 353.815C491.857 355.679 492.963 359.808 491.099 363.036L469.462 400.514C467.598 403.742 463.47 404.848 460.241 402.984L439.14 390.802L438.844 390.62C435.845 388.68 434.864 384.708 436.67 381.581L458.307 344.103Z" fill="#F6F173" stroke="black" stroke-width="3.5"/>
<path d="M492.82 284.326C494.684 281.098 498.812 279.991 502.041 281.855L523.141 294.038C526.37 295.902 527.476 300.03 525.612 303.258L503.974 340.736C502.111 343.965 497.982 345.071 494.754 343.207L473.653 331.024L473.356 330.843C470.358 328.903 469.377 324.931 471.182 321.803L492.82 284.326Z" fill="#F6F173" stroke="black" stroke-width="3.5"/>
<path d="M389.281 463.66C391.145 460.432 395.274 459.325 398.502 461.189L419.603 473.372C422.831 475.236 423.937 479.364 422.074 482.593L400.436 520.07C398.572 523.299 394.444 524.405 391.215 522.541L370.114 510.358L369.818 510.177C366.82 508.237 365.838 504.265 367.644 501.138L389.281 463.66Z" fill="#F6F173" stroke="black" stroke-width="3.5"/>
<path d="M423.795 403.882C425.659 400.653 429.787 399.547 433.015 401.411L454.116 413.594C457.344 415.457 458.45 419.586 456.587 422.814L434.949 460.292C433.085 463.52 428.957 464.626 425.728 462.763L404.627 450.58L404.331 450.398C401.333 448.459 400.351 444.487 402.157 441.359L423.795 403.882Z" fill="#F6F173" stroke="black" stroke-width="3.5"/>
<path d="M525.368 382.821C527.232 379.593 531.36 378.486 534.588 380.35L555.689 392.533C558.918 394.397 560.024 398.525 558.16 401.753L536.522 439.231C534.658 442.459 530.53 443.566 527.302 441.702L506.201 429.519L505.904 429.338C502.906 427.398 501.924 423.426 503.73 420.298L525.368 382.821Z" fill="#FF5252" stroke="black" stroke-width="3.5"/>
<path d="M559.88 323.043C561.745 319.815 565.873 318.709 569.101 320.573L590.202 332.755C593.43 334.619 594.536 338.747 592.673 341.976L571.035 379.453C569.171 382.682 565.043 383.788 561.814 381.924L540.713 369.742L540.417 369.56C537.419 367.62 536.437 363.648 538.243 360.521L559.88 323.043Z" fill="#FF5252" stroke="black" stroke-width="3.5"/>
<path d="M456.342 502.377C458.206 499.149 462.334 498.043 465.563 499.907L486.663 512.089C489.892 513.953 490.998 518.082 489.134 521.31L467.496 558.788C465.632 562.016 461.504 563.122 458.276 561.258L437.175 549.076L436.878 548.894C433.88 546.954 432.899 542.982 434.704 539.855L456.342 502.377Z" fill="#211915" fill-opacity="0.47" stroke="black" stroke-width="3.5"/>
<path d="M490.855 442.599C492.719 439.371 496.847 438.264 500.076 440.128L521.177 452.311C524.405 454.175 525.511 458.303 523.647 461.532L502.01 499.009C500.146 502.238 496.017 503.344 492.789 501.48L471.688 489.297L471.391 489.116C468.393 487.176 467.412 483.204 469.217 480.077L490.855 442.599Z" fill="#211915" fill-opacity="0.47" stroke="black" stroke-width="3.5"/>
<path d="M324.187 266.669C326.051 263.441 330.179 262.334 333.408 264.198L354.509 276.381C357.737 278.245 358.843 282.373 356.979 285.602L335.342 323.079C333.478 326.308 329.349 327.414 326.121 325.55L305.02 313.367L304.723 313.186C301.725 311.246 300.744 307.274 302.549 304.147L324.187 266.669Z" fill="white" fill-opacity="0.47" stroke="black" stroke-width="3.5"/>
<path d="M358.7 206.892C360.564 203.663 364.692 202.557 367.92 204.421L389.021 216.604C392.25 218.467 393.356 222.596 391.492 225.824L369.854 263.302C367.99 266.53 363.862 267.636 360.634 265.773L339.533 253.59L339.236 253.408C336.238 251.469 335.256 247.497 337.062 244.369L358.7 206.892Z" fill="white" fill-opacity="0.47" stroke="black" stroke-width="3.5"/>
<path d="M289.674 326.448C291.538 323.22 295.666 322.113 298.895 323.977L319.995 336.16C323.224 338.024 324.33 342.152 322.466 345.381L266.316 442.636C264.452 445.864 260.324 446.971 257.095 445.107L235.994 432.924L235.698 432.743C232.699 430.803 231.718 426.831 233.524 423.703L289.674 326.448Z" fill="#6B2BE7" stroke="black" stroke-width="3.5"/>
</g>
<defs>
<clipPath id="clip0_12_119">
<rect width="500" height="500" fill="white" transform="translate(0 433.013) rotate(-60)"/>
</clipPath>
</defs>
</svg>
