<svg width="155" height="20" viewBox="0 0 155 20" fill="none" xmlns="http://www.w3.org/2000/svg">
<g clip-path="url(#clip0_1_2026)">
<g clip-path="url(#clip1_1_2026)">
<g clip-path="url(#clip2_1_2026)">
<path d="M5.5 0.350003H0L3.4 8.75L6.5 2.95L5.5 0.350003ZM19.5 9.35L15.1 0.0500031H12.5L5.8 14.45L7.8 19.45H9.4L14.3 9.65L19.1 19.45H21.1L29 0.350003H23L19.5 9.35ZM63.2 10.95C62.6 10.15 61.8 9.55 60.8 9.15C61.6 8.35 62 7.25 62 5.95C62 4.85 61.7 3.85 61.1 3.05C60.5 2.15 59.7 1.55 58.7 1.05C57.7 0.550003 56.6 0.350003 55.4 0.350003H48.4V19.45H57.5C58.7 19.45 59.9 19.25 60.8 18.75C61.8 18.25 62.6 17.55 63.2 16.75C63.8 15.85 64.1 14.95 64.1 13.85C64.1 12.65 63.8 11.75 63.2 10.95ZM53.3 4.55H55.1C55.7 4.55 56.2 4.75 56.5 5.05C56.8 5.35 57 5.75 57 6.25C57 6.75 56.8 7.15 56.5 7.45C56.2 7.75 55.7 7.95 55.1 7.95H53.3V4.55ZM58.6 14.85C58.3 15.15 57.8 15.25 57.2 15.25H53.3V11.85H57.2C57.8 11.85 58.3 11.95 58.6 12.25C58.9 12.55 59.1 12.95 59.1 13.55C59.1 14.15 59 14.55 58.6 14.85ZM42.2 11.65V7.45H36.2V4.85H44.6V0.350003H31.1V19.45H44.9V14.95H36.1V11.65H42.2ZM113.8 9.95L103.3 0.0500031H101.7V19.45H106.8V9.75L117.3 19.75H118.9V0.350003H113.8V9.95ZM89.4 11.65H95.4V7.55H89.4V4.85H97.8V0.350003H84.4V19.45H98.2V15.05H89.4V11.65ZM65.1 4.85H70.9V19.45H76V4.85H81.8V0.350003H65.1V4.85ZM145.1 15.05V11.75H151.1V7.55H145.1V4.85H153.5V0.350003H140V19.45H153.8V15.05H145.1ZM131.8 8.15L129.6 7.25C129 6.95 128.5 6.75 128.3 6.55C128.1 6.35 127.9 6.05 127.9 5.65C127.9 5.25 128.1 4.95 128.4 4.75C128.7 4.55 129.1 4.45 129.7 4.45C130.4 4.45 131 4.65 131.5 4.95C132 5.25 132.5 5.75 132.9 6.45L136.3 3.95C135.7 2.75 134.9 1.85 133.7 1.15C132.6 0.450003 131.2 0.150003 129.6 0.150003C128.3 0.150003 127.1 0.350003 126.1 0.850003C125.1 1.35 124.3 1.95 123.7 2.85C123.1 3.75 122.8 4.65 122.8 5.85C122.8 7.15 123.2 8.25 124 9.15C124.8 10.05 126.1 10.85 127.7 11.55L129.7 12.45C130.5 12.75 131 13.05 131.3 13.25C131.6 13.45 131.7 13.75 131.7 14.25C131.7 15.15 131 15.65 129.7 15.65C128.7 15.65 127.9 15.45 127.2 14.95C126.5 14.55 125.9 13.95 125.3 13.15L121.9 15.65C122.6 16.95 123.6 18.05 125 18.75C126.4 19.55 127.9 19.95 129.6 19.95C130.9 19.95 132.1 19.75 133.2 19.25C134.3 18.75 135.1 18.05 135.8 17.15C136.4 16.25 136.7 15.15 136.7 13.95C136.7 12.65 136.3 11.45 135.5 10.55C134.7 9.65 133.5 8.85 131.8 8.15Z" fill="white"/>
</g>
</g>
</g>
<defs>
<clipPath id="clip0_1_2026">
<rect width="154" height="20" fill="white"/>
</clipPath>
<clipPath id="clip1_1_2026">
<rect width="154" height="20" fill="white"/>
</clipPath>
<clipPath id="clip2_1_2026">
<rect width="154" height="20" fill="white"/>
</clipPath>
</defs>
</svg>
