<svg width="12" height="15" viewBox="0 0 12 15" fill="none" xmlns="http://www.w3.org/2000/svg">
<g clip-path="url(#clip0_1_1937)">
<path d="M6 0C2.9 0 0.375 2.4375 0.375 5.4325C0.375 9.15 5.40875 14.6087 5.62375 14.8375C5.82375 15.0538 6.17625 15.0538 6.37625 14.8375C6.59125 14.6062 11.625 9.15 11.625 5.4325C11.6275 2.4375 9.10375 0 6 0ZM6 8.16625C4.44 8.16625 3.16875 6.93875 3.16875 5.4325C3.16875 3.92625 4.44 2.69875 6 2.69875C7.56 2.69875 8.83125 3.92625 8.83125 5.4325C8.83125 6.93875 7.5625 8.16625 6 8.16625Z" fill="white"/>
</g>
<defs>
<clipPath id="clip0_1_1937">
<rect width="12" height="15" fill="white"/>
</clipPath>
</defs>
</svg>
