<svg width="14" height="13" viewBox="0 0 14 13" fill="none" xmlns="http://www.w3.org/2000/svg">
<path d="M1.14216 6.93086C0.410741 6.16952 0 5.14052 0 4.06766C0 2.98885 0.415064 1.9539 1.15441 1.19108C1.89375 0.428254 2.89685 0 3.94245 0C4.98806 0 5.99115 0.428254 6.73049 1.19108L6.99999 1.46915L7.26951 1.19108C8.00885 0.428254 9.01122 0 10.0568 0C11.1031 0 12.1055 0.428254 12.8449 1.19108C13.5842 1.9539 14 2.98885 14 4.06766C14 5.14052 13.5893 6.16952 12.8571 6.93086L7.50875 12.774C7.37688 12.9182 7.1924 13 6.99999 13C6.80759 13 6.62312 12.9182 6.49125 12.774L1.14216 6.93086ZM6.99999 11.226L11.8411 5.93754L11.8555 5.92268C12.3318 5.43048 12.5999 4.76357 12.5999 4.06766C12.5999 3.37175 12.3318 2.70483 11.8555 2.21264C11.3784 1.72045 10.7313 1.44386 10.0568 1.44386C9.38305 1.44386 8.73595 1.72045 8.25891 2.21264L7.49506 3.00149C7.22123 3.28327 6.77805 3.28327 6.50494 3.00149L5.74037 2.21264C5.26404 1.72045 4.61694 1.44386 3.94245 1.44386C3.26796 1.44386 2.62158 1.72045 2.14453 2.21264C1.66749 2.70483 1.40014 3.37175 1.40014 4.06766C1.40014 4.76357 1.66749 5.43048 2.14453 5.92268C2.14958 5.92788 2.1539 5.93234 2.15822 5.93754L6.99999 11.226Z" fill="#171718" fill-opacity="0.3"/>
</svg>
