<svg width="16" height="15" viewBox="0 0 16 15" fill="none" xmlns="http://www.w3.org/2000/svg">
<g clip-path="url(#clip0_1_1821)">
<path fill-rule="evenodd" clip-rule="evenodd" d="M7.63 0.960078C7.73928 0.906429 7.86142 0.884547 7.98253 0.896923C8.10364 0.909298 8.21883 0.955435 8.315 1.03008L15.243 6.38808C15.3207 6.44801 15.3839 6.52477 15.4277 6.6126C15.4715 6.70042 15.4949 6.79703 15.496 6.89517C15.4972 6.99332 15.4761 7.09045 15.4344 7.17928C15.3926 7.26811 15.3313 7.34633 15.255 7.40808L8.326 13.0201C8.2306 13.0973 8.11528 13.146 7.99339 13.1604C7.8715 13.1748 7.74801 13.1544 7.63722 13.1016C7.52643 13.0488 7.43286 12.9656 7.36734 12.8618C7.30183 12.758 7.26704 12.6378 7.267 12.5151V10.2531C6.417 10.1501 5.401 10.5501 4.304 11.2751C3.271 11.9581 2.314 12.8271 1.548 13.5211C1.384 13.6711 1.228 13.8121 1.082 13.9421C0.988401 14.0253 0.872739 14.0798 0.748929 14.0988C0.62512 14.1179 0.498439 14.1008 0.384129 14.0495C0.269819 13.9983 0.17275 13.9151 0.104602 13.81C0.0364533 13.7049 0.000129193 13.5823 0 13.4571C0 11.3501 0.932 9.05408 2.342 7.26508C3.612 5.65308 5.347 4.36008 7.267 4.04308V1.54308C7.26713 1.42159 7.3013 1.30258 7.36564 1.19953C7.42998 1.09649 7.52091 1.01353 7.63 0.960078ZM8.567 2.86808V4.62608C8.56697 4.79256 8.50306 4.95269 8.38845 5.07344C8.27384 5.1942 8.11726 5.26637 7.951 5.27508C6.298 5.36008 4.637 6.45208 3.363 8.07008C2.477 9.19408 1.823 10.5171 1.509 11.8111C2.127 11.2711 2.839 10.6841 3.587 10.1911C4.912 9.31508 6.574 8.56908 8.137 9.13108C8.26297 9.17639 8.37188 9.25949 8.44885 9.36903C8.52581 9.47857 8.56707 9.6092 8.567 9.74308V11.1521L13.799 6.91408L8.567 2.86808Z" fill="#171718" fill-opacity="0.3"/>
</g>
<defs>
<clipPath id="clip0_1_1821">
<rect width="16" height="15" fill="white"/>
</clipPath>
</defs>
</svg>
