<svg width="18" height="18" viewBox="0 0 18 18" fill="none" xmlns="http://www.w3.org/2000/svg">
<path d="M6.58821 12.8094V15.9208C6.58821 16.1394 6.7335 16.3309 6.94821 16.3991C7.05217 16.4332 7.16416 16.4342 7.26872 16.402C7.37327 16.3697 7.46524 16.3058 7.53193 16.2191L9.42193 13.7415L6.58821 12.8094ZM16.9896 1.08881C16.9102 1.03487 16.8178 1.00311 16.722 0.996779C16.6261 0.990451 16.5304 1.00979 16.4445 1.05281L0.776786 8.93423C0.687397 8.97818 0.613122 9.04775 0.563431 9.13408C0.513741 9.22041 0.490888 9.31958 0.497786 9.41895C0.513215 9.61952 0.652072 9.79181 0.848786 9.85609L5.20607 11.2909L14.4825 3.65123L7.30307 11.9814L14.6034 14.3857C14.676 14.4084 14.7525 14.4159 14.8282 14.4078C14.9038 14.3996 14.977 14.3759 15.0431 14.3381C15.1074 14.3006 15.1627 14.2493 15.2049 14.188C15.2472 14.1267 15.2753 14.0567 15.2874 13.9832L17.2031 1.57352C17.2169 1.48082 17.2042 1.38609 17.1664 1.30031C17.1287 1.21453 17.0674 1.1412 16.9896 1.08881Z" fill="#6B2BE7"/>
</svg>
