<svg width="16" height="13" viewBox="0 0 16 13" fill="none" xmlns="http://www.w3.org/2000/svg">
<g clip-path="url(#clip0_1_1810)">
<path fill-rule="evenodd" clip-rule="evenodd" d="M11 6.5C11 5.70435 10.6839 4.94129 10.1213 4.37868C9.55871 3.81607 8.79565 3.5 8 3.5C7.20435 3.5 6.44129 3.81607 5.87868 4.37868C5.31607 4.94129 5 5.70435 5 6.5C5 7.29565 5.31607 8.05871 5.87868 8.62132C6.44129 9.18393 7.20435 9.5 8 9.5C8.79565 9.5 9.55871 9.18393 10.1213 8.62132C10.6839 8.05871 11 7.29565 11 6.5ZM9.667 6.5C9.667 6.94198 9.49142 7.36586 9.17889 7.67839C8.86636 7.99092 8.44248 8.1665 8.0005 8.1665C7.55852 8.1665 7.13464 7.99092 6.82211 7.67839C6.50958 7.36586 6.334 6.94198 6.334 6.5C6.334 6.05802 6.50958 5.63414 6.82211 5.32161C7.13464 5.00908 7.55852 4.8335 8.0005 4.8335C8.44248 4.8335 8.86636 5.00908 9.17889 5.32161C9.49142 5.63414 9.667 6.05802 9.667 6.5Z" fill="#171718" fill-opacity="0.3"/>
<path fill-rule="evenodd" clip-rule="evenodd" d="M16 6.5C14.4 2.917 11.42 0.5 8 0.5C4.58 0.5 1.6 2.917 0 6.5C1.6 10.084 4.58 12.5 8 12.5C11.42 12.5 14.4 10.084 16 6.5ZM14.481 6.5C13.005 9.294 10.574 11 8 11C5.426 11 2.995 9.294 1.519 6.5C2.995 3.706 5.426 2 8 2C10.574 2 13.005 3.706 14.481 6.5Z" fill="#171718" fill-opacity="0.3"/>
</g>
<defs>
<clipPath id="clip0_1_1810">
<rect width="16" height="13" fill="white"/>
</clipPath>
</defs>
</svg>
