<svg width="18" height="18" viewBox="0 0 18 18" fill="none" xmlns="http://www.w3.org/2000/svg">
<path d="M14.554 9.84401C14.27 9.50601 14.351 9.35601 14.554 9.05401C14.557 9.05101 16.898 6.00101 17.139 4.96701H17.141C17.261 4.58901 17.141 4.31201 16.561 4.31201H14.644C14.155 4.31201 13.93 4.55001 13.81 4.81601C13.81 4.81601 12.834 7.02001 11.452 8.44801C11.007 8.86101 10.8 8.99301 10.557 8.99301C10.437 8.99301 10.251 8.86101 10.251 8.48301V4.96701C10.251 4.51501 10.114 4.31401 9.711 4.31401H6.694C6.388 4.31401 6.206 4.52401 6.206 4.72101C6.206 5.14901 6.896 5.24801 6.968 6.45401V9.07001C6.968 9.64301 6.858 9.74801 6.613 9.74801C5.961 9.74801 4.379 7.53601 3.441 5.00401C3.251 4.51301 3.067 4.31401 2.575 4.31401H0.658C0.11 4.31301 0 4.55101 0 4.81701C0 5.28701 0.652 7.62301 3.031 10.71C4.617 12.817 6.851 13.959 8.882 13.959C10.103 13.959 10.252 13.705 10.252 13.269C10.252 11.256 10.142 11.065 10.754 11.065C11.037 11.065 11.525 11.198 12.665 12.215C13.968 13.419 14.183 13.959 14.912 13.959H16.829C17.376 13.959 17.653 13.705 17.494 13.205C17.129 12.153 14.664 9.98901 14.554 9.84401Z" fill="#6B2BE7"/>
</svg>
