<svg width="18" height="18" viewBox="0 0 18 18" fill="none" xmlns="http://www.w3.org/2000/svg">
<g clip-path="url(#clip0_1_1947)">
<g clip-path="url(#clip1_1_1947)">
<g clip-path="url(#clip2_1_1947)">
<path d="M9.002 0H8.998C4.035 0 0 4.037 0 9C0 10.969 0.634 12.793 1.713 14.275L0.592 17.62L4.052 16.514C5.51897 17.4867 7.24087 18.0037 9.001 18C13.965 18 18 13.962 18 9C18 4.038 13.965 0 9.002 0Z" fill="#6B2BE7"/>
<path d="M13.34 11.928C13.156 12.422 12.428 12.832 11.848 12.952C11.451 13.032 10.932 13.097 9.186 12.406C6.953 11.522 5.515 9.356 5.402 9.215C5.295 9.075 4.5 8.067 4.5 7.026C4.5 5.985 5.054 5.478 5.277 5.26C5.46 5.082 5.763 5 6.054 5C6.148 5 6.233 5.005 6.309 5.008C6.532 5.018 6.644 5.03 6.791 5.366C6.975 5.788 7.421 6.829 7.474 6.936C7.528 7.043 7.583 7.189 7.507 7.329C7.435 7.474 7.373 7.539 7.261 7.662C7.148 7.785 7.042 7.88 6.93 8.012C6.827 8.127 6.711 8.251 6.84 8.464C6.97 8.672 7.416 9.368 8.074 9.927C8.922 10.647 9.61 10.878 9.856 10.977C10.039 11.049 10.258 11.031 10.392 10.895C10.562 10.72 10.772 10.43 10.985 10.145C11.137 9.94 11.329 9.915 11.531 9.987C11.736 10.055 12.821 10.567 13.045 10.673C13.268 10.78 13.415 10.831 13.469 10.921C13.523 11.011 13.523 11.432 13.339 11.928H13.34Z" fill="#FAFAFA"/>
</g>
</g>
</g>
<defs>
<clipPath id="clip0_1_1947">
<rect width="18" height="18" fill="white"/>
</clipPath>
<clipPath id="clip1_1_1947">
<rect width="18" height="18" fill="white"/>
</clipPath>
<clipPath id="clip2_1_1947">
<rect width="18" height="18" fill="white"/>
</clipPath>
</defs>
</svg>
